<svg xmlns="http://www.w3.org/2000/svg" xmlns:xlink="http://www.w3.org/1999/xlink" viewBox="0 0 1024 100"><defs><style>.a{fill:none;}.b{fill:#53585f;}.c{fill:#e76c81;}.d{clip-path:url(#a);}.e{fill:#e95471;}.f{fill:#d2d4d5;}.g{fill:#838689;}.h{fill:#dbdddf;}</style><clipPath id="a"><rect class="a" x="16" y="9" width="197" height="53"/></clipPath></defs><title>content-footer</title><rect class="b" x="-3" y="61.251" width="1027.661" height="54.582"/><rect class="c" x="-2.914" y="60.565" width="1027.997" height="3.184"/><g class="d"><path class="e" d="M54.046,20.5a8.186,8.186,0,0,0-11.429,1.278L38.8,26.475A1.919,1.919,0,0,0,40.3,29.6H51.471a3.276,3.276,0,0,1,3.208,2.585l.067.315.52-.639A8.037,8.037,0,0,0,54.046,20.5"/><path class="f" d="M37.066,43.916A8.044,8.044,0,0,1,30.813,30.8l.52-.64.067.315a3.277,3.277,0,0,0,3.208,2.585H45.78a1.919,1.919,0,0,1,1.5,3.128l-3.818,4.692a8.24,8.24,0,0,1-6.4,3.038"/><path class="g" d="M88.2,36.313v8.273c0,2.6,1.926,4.51,5.331,4.51,3.206,0,5.3-1.742,5.3-4.582v-8.2H96.964v7.674c0,2.694-1.158,3.564-3.259,3.564-2.2,0-3.07-1.113-3.07-3.617v-7.62H88.2"/><rect class="g" x="132.666" y="39.549" width="2.312" height="9.349"/><path class="g" d="M133.822,38.47a1.366,1.366,0,1,0-1.373-1.366,1.37,1.37,0,0,0,1.373,1.366"/><path class="g" d="M159.562,39.351c-2.828,0-4.489,2-4.489,4.854v.09a4.471,4.471,0,0,0,4.8,4.8,6.624,6.624,0,0,0,3.455-.919v-1.6a5.54,5.54,0,0,1-3.423,1.189c-1.349,0-2.34-.927-2.34-3.036h6.322c0-3.347-1.275-5.378-4.326-5.378M157.593,43.4c.073-1.638.59-2.717,1.969-2.717,1.314,0,1.792,1.194,1.833,2.717Z"/><path class="g" d="M187.989,39.351c-2.828,0-4.488,2-4.488,4.854v.09a4.471,4.471,0,0,0,4.8,4.8,6.625,6.625,0,0,0,3.455-.919v-1.6a5.536,5.536,0,0,1-3.423,1.189c-1.348,0-2.339-.927-2.339-3.036h6.322c0-3.347-1.276-5.378-4.327-5.378M186.02,43.4c.074-1.638.589-2.717,1.968-2.717,1.315,0,1.793,1.194,1.833,2.717Z"/><path class="g" d="M150.971,46.368V40.879H153.7v-1.33h-2.725V36.78h-2.312v2.769H147.4v1.33h1.262v5.632c0,1.515,1.249,2.584,3.1,2.584a3.425,3.425,0,0,0,1.959-.492V47.438a3.962,3.962,0,0,1-1.442.254,1.238,1.238,0,0,1-1.3-1.324"/><path class="g" d="M53.96,39.31c0-1.028.711-1.631,2.093-1.631A6.226,6.226,0,0,1,59.784,38.9V36.871a9.725,9.725,0,0,0-3.735-.738c-2.753,0-4.709,1.35-4.709,3.379,0,4.16,6.418,3.488,6.418,6.284,0,1.111-.818,1.736-2,1.736a7.094,7.094,0,0,1-4.394-1.781v2.088a7.778,7.778,0,0,0,4.563,1.239c2.7,0,4.448-1.408,4.448-3.514,0-4.446-6.417-3.571-6.417-6.254"/><path class="g" d="M112.1,40.015c0-2.741-2.311-3.7-4.539-3.7h-5.635V48.9h2.439V43.882h2.327l2.877,5.016h2.809l-3.041-5.307a3.564,3.564,0,0,0,2.764-3.575m-7.736-2.146h2.389c1.633,0,2.728.737,2.728,2.26,0,1.625-1.3,2.2-2.727,2.2h-2.39Z"/><polyline class="g" points="83.303 48.898 86.352 48.898 81.073 41.895 86.05 36.313 83.973 36.313 77.78 43.258 77.78 36.313 75.341 36.313 75.341 48.898 77.78 48.898 77.78 45.588 79.421 43.748 83.303 48.898"/><path class="g" d="M70.992,48.9h2.616L68.667,36.223H66.189L61.248,48.9h2l1.3-3.332h5.15l1.3,3.332M65.145,44.02l1.973-5.06,1.972,5.06Z"/><path class="g" d="M142.919,39.351a4.217,4.217,0,0,0-3.071,1.581V39.549h-2.312V48.9h2.313V42.35a2.522,2.522,0,0,1,2.11-1.43,1.361,1.361,0,0,1,1.385,1.363V48.9h2.312V41.772a2.452,2.452,0,0,0-2.736-2.42"/><path class="g" d="M178.791,39.351a4.219,4.219,0,0,0-3.071,1.581V39.549h-2.312V48.9h2.312V42.35a2.524,2.524,0,0,1,2.11-1.43,1.361,1.361,0,0,1,1.386,1.363V48.9h2.312V41.772a2.453,2.453,0,0,0-2.737-2.42"/><path class="g" d="M168.287,41.2V39.549h-2.312V48.9h2.313V42.624a4.385,4.385,0,0,1,3.49-1.421V39.459a4.308,4.308,0,0,0-3.49,1.741"/><path class="g" d="M123.381,48.9H126l-4.94-12.675h-2.479L113.637,48.9h2l1.3-3.332h5.15l1.3,3.332m-5.846-4.878,1.972-5.06,1.972,5.06Z"/><path class="g" d="M197.2,46.368V40.879h2.724v-1.33H197.2V36.78h-2.312v2.769h-1.262v1.33h1.262v5.632c0,1.515,1.249,2.584,3.1,2.584a3.422,3.422,0,0,0,1.959-.492V47.438a3.959,3.959,0,0,1-1.442.254,1.239,1.239,0,0,1-1.3-1.324"/></g><path class="h" d="M32.339,85.1a8.771,8.771,0,0,1-1.23-2.148,6.743,6.743,0,0,1-.127-4.775,9.36,9.36,0,0,1,1.357-2.461h.63q-.59,1.015-.781,1.45a7.976,7.976,0,0,0-.469,1.406,8.184,8.184,0,0,0-.21,1.836,8.809,8.809,0,0,0,1.46,4.692Z"/><path class="h" d="M39.209,80.49l.947.239a3.186,3.186,0,0,1-1.072,1.78,2.953,2.953,0,0,1-1.892.612,3.393,3.393,0,0,1-1.882-.472,2.93,2.93,0,0,1-1.1-1.364,4.858,4.858,0,0,1-.379-1.919,4.219,4.219,0,0,1,.428-1.951,2.917,2.917,0,0,1,1.215-1.264,3.545,3.545,0,0,1,1.736-.433,2.937,2.937,0,0,1,1.807.547A2.839,2.839,0,0,1,40.034,77.8l-.933.22a2.214,2.214,0,0,0-.723-1.138,1.927,1.927,0,0,0-1.191-.356,2.313,2.313,0,0,0-1.379.4,2.081,2.081,0,0,0-.779,1.063,4.279,4.279,0,0,0-.225,1.374,4.39,4.39,0,0,0,.266,1.595,1.989,1.989,0,0,0,.828,1.018,2.319,2.319,0,0,0,1.216.337,2.04,2.04,0,0,0,1.348-.459A2.343,2.343,0,0,0,39.209,80.49Z"/><path class="h" d="M41.787,85.1h-.63a8.809,8.809,0,0,0,1.46-4.692,8.038,8.038,0,0,0-.21-1.821,7.655,7.655,0,0,0-.464-1.406,16.408,16.408,0,0,0-.786-1.465h.63a9.36,9.36,0,0,1,1.357,2.461,6.723,6.723,0,0,1-.13,4.775A8.925,8.925,0,0,1,41.787,85.1Z"/><path class="h" d="M52.539,80.49l.947.239a3.186,3.186,0,0,1-1.072,1.78,2.953,2.953,0,0,1-1.892.612,3.393,3.393,0,0,1-1.882-.472,2.93,2.93,0,0,1-1.1-1.364,4.858,4.858,0,0,1-.379-1.919,4.219,4.219,0,0,1,.428-1.951A2.917,2.917,0,0,1,48.8,76.152a3.545,3.545,0,0,1,1.736-.433,2.937,2.937,0,0,1,1.807.547A2.839,2.839,0,0,1,53.364,77.8l-.933.22a2.214,2.214,0,0,0-.723-1.138,1.927,1.927,0,0,0-1.191-.356,2.313,2.313,0,0,0-1.379.4,2.081,2.081,0,0,0-.779,1.063,4.279,4.279,0,0,0-.225,1.374,4.39,4.39,0,0,0,.266,1.595,1.989,1.989,0,0,0,.828,1.018,2.319,2.319,0,0,0,1.216.337,2.04,2.04,0,0,0,1.348-.459A2.343,2.343,0,0,0,52.539,80.49Z"/><path class="h" d="M54.214,80.407a2.672,2.672,0,0,1,.8-2.134,2.415,2.415,0,0,1,1.631-.576,2.324,2.324,0,0,1,1.748.7,2.666,2.666,0,0,1,.679,1.936,3.441,3.441,0,0,1-.3,1.574,2.133,2.133,0,0,1-.875.892,2.538,2.538,0,0,1-1.252.317,2.329,2.329,0,0,1-1.76-.7A2.786,2.786,0,0,1,54.214,80.407Zm.9,0a2.205,2.205,0,0,0,.435,1.491,1.447,1.447,0,0,0,2.183,0,2.259,2.259,0,0,0,.435-1.519,2.141,2.141,0,0,0-.437-1.458,1.449,1.449,0,0,0-2.18,0A2.2,2.2,0,0,0,55.117,80.407Z"/><path class="h" d="M60.1,84.987V77.814h.8v.674a1.986,1.986,0,0,1,.64-.594,1.767,1.767,0,0,1,.864-.2,2.053,2.053,0,0,1,1.172.342,2.092,2.092,0,0,1,.767.965,3.508,3.508,0,0,1,.259,1.364,3.446,3.446,0,0,1-.286,1.433,2.173,2.173,0,0,1-1.975,1.316,1.654,1.654,0,0,1-.789-.186,1.8,1.8,0,0,1-.573-.469v2.524Zm.8-4.551a2.255,2.255,0,0,0,.405,1.479,1.243,1.243,0,0,0,.981.479,1.271,1.271,0,0,0,1-.5,2.355,2.355,0,0,0,.417-1.535,2.293,2.293,0,0,0-.407-1.484,1.228,1.228,0,0,0-.975-.493,1.269,1.269,0,0,0-.994.524A2.357,2.357,0,0,0,60.9,80.437Z"/><path class="h" d="M65.625,85l-.1-.825a1.973,1.973,0,0,0,.5.078.961.961,0,0,0,.469-.1.8.8,0,0,0,.288-.273,4.3,4.3,0,0,0,.269-.654c.017-.049.042-.12.078-.215l-1.968-5.2h.947l1.079,3q.209.571.376,1.2a11.826,11.826,0,0,1,.361-1.182l1.108-3.022h.879l-1.973,5.273a10.44,10.44,0,0,1-.493,1.177,1.737,1.737,0,0,1-.537.638,1.271,1.271,0,0,1-.723.2A1.769,1.769,0,0,1,65.625,85Z"/><path class="h" d="M70.654,83V77.814h.791V78.6a2.134,2.134,0,0,1,.56-.728.972.972,0,0,1,.563-.176,1.717,1.717,0,0,1,.9.283l-.3.815a1.258,1.258,0,0,0-.645-.19.833.833,0,0,0-.518.174.936.936,0,0,0-.327.48,3.423,3.423,0,0,0-.146,1.025V83Z"/><path class="h" d="M74,76.853V75.842h.879v1.011ZM74,83V77.814h.879V83Z"/><path class="h" d="M76.055,83.43l.854.127a.814.814,0,0,0,.3.576,1.46,1.46,0,0,0,.894.244,1.567,1.567,0,0,0,.942-.244,1.2,1.2,0,0,0,.449-.684,5.609,5.609,0,0,0,.063-1.128A1.808,1.808,0,0,1,78.12,83a1.956,1.956,0,0,1-1.655-.771,2.971,2.971,0,0,1-.586-1.851,3.453,3.453,0,0,1,.269-1.37,2.146,2.146,0,0,1,.778-.969,2.108,2.108,0,0,1,1.2-.342,1.858,1.858,0,0,1,1.514.742v-.625h.811V82.3a4.264,4.264,0,0,1-.246,1.717,1.816,1.816,0,0,1-.781.8,2.713,2.713,0,0,1-1.316.293,2.489,2.489,0,0,1-1.5-.417A1.415,1.415,0,0,1,76.055,83.43Zm.728-3.115a2.247,2.247,0,0,0,.405,1.489,1.287,1.287,0,0,0,1.016.469,1.3,1.3,0,0,0,1.016-.466,2.179,2.179,0,0,0,.41-1.463,2.128,2.128,0,0,0-.422-1.436,1.307,1.307,0,0,0-1.019-.483,1.271,1.271,0,0,0-1,.476A2.117,2.117,0,0,0,76.782,80.314Z"/><path class="h" d="M81.777,83V75.842h.879V78.41a1.962,1.962,0,0,1,1.553-.713,2.106,2.106,0,0,1,1,.227,1.334,1.334,0,0,1,.607.628A2.873,2.873,0,0,1,86,79.714V83h-.879V79.714a1.365,1.365,0,0,0-.285-.96,1.068,1.068,0,0,0-.809-.3,1.422,1.422,0,0,0-.734.2,1.143,1.143,0,0,0-.491.55,2.523,2.523,0,0,0-.146.957V83Z"/><path class="h" d="M89.258,82.214l.127.776a3.281,3.281,0,0,1-.664.078,1.506,1.506,0,0,1-.742-.151.845.845,0,0,1-.371-.4,3.162,3.162,0,0,1-.107-1.038V78.5h-.645v-.684H87.5V76.53L88.374,76v1.812h.884V78.5h-.884V81.53a1.555,1.555,0,0,0,.046.483.368.368,0,0,0,.152.171.585.585,0,0,0,.3.063A2.909,2.909,0,0,0,89.258,82.214Z"/><path class="h" d="M95.962,83h-.879V77.4A4.548,4.548,0,0,1,94.25,78a5.814,5.814,0,0,1-.925.454v-.85a5.32,5.32,0,0,0,1.289-.84,3.3,3.3,0,0,0,.781-.957h.566Z"/><path class="h" d="M98.345,81.345l.845-.078a1.462,1.462,0,0,0,.41.864,1.129,1.129,0,0,0,.776.269,1.34,1.34,0,0,0,.711-.186,1.523,1.523,0,0,0,.5-.5,2.93,2.93,0,0,0,.327-.838,4.414,4.414,0,0,0,.132-1.074c0-.039,0-.1,0-.176a2.021,2.021,0,0,1-.72.682,1.964,1.964,0,0,1-.989.261,2,2,0,0,1-1.5-.645,2.359,2.359,0,0,1-.615-1.7,2.416,2.416,0,0,1,.642-1.753,2.148,2.148,0,0,1,1.609-.664,2.3,2.3,0,0,1,1.277.376,2.366,2.366,0,0,1,.879,1.071,5.305,5.305,0,0,1,.3,2.015,6.519,6.519,0,0,1-.3,2.185,2.553,2.553,0,0,1-.887,1.238,2.291,2.291,0,0,1-1.379.425,1.89,1.89,0,0,1-2.012-1.777Zm3.6-3.159a1.715,1.715,0,0,0-.4-1.2,1.261,1.261,0,0,0-.969-.444,1.337,1.337,0,0,0-1.021.479,1.773,1.773,0,0,0-.435,1.24,1.532,1.532,0,0,0,.412,1.11,1.361,1.361,0,0,0,1.019.428,1.3,1.3,0,0,0,1-.428A1.677,1.677,0,0,0,101.943,78.186Z"/><path class="h" d="M103.906,81.345l.845-.078a1.462,1.462,0,0,0,.41.864,1.129,1.129,0,0,0,.776.269,1.34,1.34,0,0,0,.711-.186,1.523,1.523,0,0,0,.5-.5,2.93,2.93,0,0,0,.327-.838,4.414,4.414,0,0,0,.132-1.074c0-.039,0-.1,0-.176a2.021,2.021,0,0,1-.72.682,1.964,1.964,0,0,1-.989.261,2,2,0,0,1-1.5-.645,2.359,2.359,0,0,1-.615-1.7,2.416,2.416,0,0,1,.642-1.753,2.148,2.148,0,0,1,1.609-.664,2.3,2.3,0,0,1,1.277.376,2.366,2.366,0,0,1,.879,1.071,5.305,5.305,0,0,1,.3,2.015,6.519,6.519,0,0,1-.3,2.185A2.553,2.553,0,0,1,107.3,82.7a2.291,2.291,0,0,1-1.379.425,1.89,1.89,0,0,1-2.012-1.777Zm3.6-3.159a1.715,1.715,0,0,0-.4-1.2,1.261,1.261,0,0,0-.969-.444,1.337,1.337,0,0,0-1.021.479,1.773,1.773,0,0,0-.435,1.24,1.532,1.532,0,0,0,.412,1.11,1.361,1.361,0,0,0,1.019.428,1.3,1.3,0,0,0,1-.428A1.677,1.677,0,0,0,107.5,78.186Z"/><path class="h" d="M113.9,77.595l-.874.068a1.653,1.653,0,0,0-.332-.752,1.161,1.161,0,0,0-.879-.376,1.208,1.208,0,0,0-.737.234,2,2,0,0,0-.654.884,4.636,4.636,0,0,0-.249,1.655,2.041,2.041,0,0,1,.776-.718,2.088,2.088,0,0,1,.962-.234,1.99,1.99,0,0,1,1.5.647,2.319,2.319,0,0,1,.618,1.672,2.751,2.751,0,0,1-.29,1.252,2.116,2.116,0,0,1-.8.887,2.181,2.181,0,0,1-1.152.308,2.253,2.253,0,0,1-1.792-.808,4.083,4.083,0,0,1-.693-2.664,4.776,4.776,0,0,1,.767-3.018,2.2,2.2,0,0,1,1.8-.82,1.918,1.918,0,0,1,2.031,1.782Zm-3.589,3.086a2.033,2.033,0,0,0,.193.869,1.429,1.429,0,0,0,.539.632,1.345,1.345,0,0,0,.728.218,1.238,1.238,0,0,0,.957-.449,1.77,1.77,0,0,0,.4-1.221,1.652,1.652,0,0,0-.4-1.169,1.3,1.3,0,0,0-1-.428,1.354,1.354,0,0,0-1.011.428A1.54,1.54,0,0,0,110.308,80.681Z"/><path class="h" d="M114.8,80.852v-.884h2.7v.884Z"/><path class="h" d="M122.847,82.155V83h-4.731a1.542,1.542,0,0,1,.1-.61,3.217,3.217,0,0,1,.579-.952,9.034,9.034,0,0,1,1.149-1.084,9.75,9.75,0,0,0,1.577-1.516,1.817,1.817,0,0,0,.41-1.058,1.18,1.18,0,0,0-.373-.882,1.354,1.354,0,0,0-.975-.358,1.373,1.373,0,0,0-1.016.381,1.44,1.44,0,0,0-.386,1.055l-.9-.093a2.225,2.225,0,0,1,.7-1.541,2.384,2.384,0,0,1,1.626-.529,2.269,2.269,0,0,1,1.631.571,1.875,1.875,0,0,1,.6,1.416,2.148,2.148,0,0,1-.176.845,3.283,3.283,0,0,1-.583.874,14.362,14.362,0,0,1-1.355,1.26q-.791.664-1.016.9a2.891,2.891,0,0,0-.371.476Z"/><path class="h" d="M123.789,79.47a6.567,6.567,0,0,1,.261-2.044,2.547,2.547,0,0,1,.777-1.193,1.981,1.981,0,0,1,1.3-.42,2.109,2.109,0,0,1,1.011.232,1.925,1.925,0,0,1,.718.668,3.608,3.608,0,0,1,.444,1.064,7.079,7.079,0,0,1,.161,1.692A6.565,6.565,0,0,1,128.2,81.5a2.546,2.546,0,0,1-.773,1.2,1.983,1.983,0,0,1-1.3.423,1.963,1.963,0,0,1-1.626-.742A4.719,4.719,0,0,1,123.789,79.47Zm.9,0a4.5,4.5,0,0,0,.412,2.347,1.18,1.18,0,0,0,2.037,0,4.5,4.5,0,0,0,.412-2.344,4.5,4.5,0,0,0-.412-2.349,1.225,1.225,0,0,0-1.028-.581,1.127,1.127,0,0,0-.967.513A4.541,4.541,0,0,0,124.692,79.47Z"/><path class="h" d="M132.661,83h-.879V77.4a4.548,4.548,0,0,1-.833.605,5.814,5.814,0,0,1-.925.454v-.85a5.321,5.321,0,0,0,1.289-.84,3.3,3.3,0,0,0,.781-.957h.566Z"/><path class="h" d="M134.971,76.779v-.845H139.6v.684a9.8,9.8,0,0,0-1.355,1.934,11.784,11.784,0,0,0-1.037,2.48A9.216,9.216,0,0,0,136.875,83h-.9a8.755,8.755,0,0,1,.332-2.041,10.766,10.766,0,0,1,.91-2.307,9.9,9.9,0,0,1,1.263-1.873Z"/><path class="h" d="M143.286,80.7l.894-.078a1.966,1.966,0,0,0,.3.882,1.625,1.625,0,0,0,.72.557,2.742,2.742,0,0,0,1.1.212,2.631,2.631,0,0,0,.957-.161,1.33,1.33,0,0,0,.617-.441,1.023,1.023,0,0,0,.2-.613.931.931,0,0,0-.2-.588,1.443,1.443,0,0,0-.645-.423,12.425,12.425,0,0,0-1.274-.349,6.551,6.551,0,0,1-1.382-.447,1.933,1.933,0,0,1-.764-.666,1.633,1.633,0,0,1-.252-.892,1.816,1.816,0,0,1,.308-1.013,1.907,1.907,0,0,1,.9-.716,3.4,3.4,0,0,1,1.313-.244,3.578,3.578,0,0,1,1.4.257,2.02,2.02,0,0,1,.935.754,2.173,2.173,0,0,1,.352,1.128l-.908.068a1.468,1.468,0,0,0-.5-1.025,1.931,1.931,0,0,0-1.248-.347,2.006,2.006,0,0,0-1.252.314.946.946,0,0,0-.394.76.814.814,0,0,0,.278.635,3.769,3.769,0,0,0,1.428.51,9.511,9.511,0,0,1,1.585.457,2.167,2.167,0,0,1,.923.73,1.779,1.779,0,0,1,.3,1.018,1.946,1.946,0,0,1-.327,1.076,2.15,2.15,0,0,1-.939.787,3.29,3.29,0,0,1-1.38.28,4.122,4.122,0,0,1-1.628-.283,2.28,2.28,0,0,1-1.031-.853A2.419,2.419,0,0,1,143.286,80.7Z"/><path class="h" d="M149.492,83l2.749-7.158h1.021L156.191,83h-1.079l-.835-2.168h-2.993L150.5,83Zm2.065-2.939h2.427l-.747-1.982q-.341-.9-.508-1.484a9.076,9.076,0,0,1-.386,1.367Z"/><path class="h" d="M156.909,83V75.842h.947v3.55l3.555-3.55H162.7l-3,2.9L162.827,83h-1.25l-2.549-3.623-1.172,1.143V83Z"/><path class="h" d="M168.315,75.842h.947v4.136a4.885,4.885,0,0,1-.244,1.714,2.1,2.1,0,0,1-.881,1.033,3.131,3.131,0,0,1-1.673.4,3.433,3.433,0,0,1-1.646-.347,1.979,1.979,0,0,1-.913-1,4.77,4.77,0,0,1-.273-1.794V75.842h.947v4.131a4.041,4.041,0,0,0,.173,1.375,1.321,1.321,0,0,0,.6.681,2.073,2.073,0,0,0,1.033.239,1.975,1.975,0,0,0,1.489-.474,2.73,2.73,0,0,0,.444-1.821Z"/><path class="h" d="M170.854,83V75.842h3.174a4.215,4.215,0,0,1,1.455.193,1.587,1.587,0,0,1,.8.681,2.035,2.035,0,0,1,.3,1.079,1.8,1.8,0,0,1-.493,1.284,2.5,2.5,0,0,1-1.523.664,2.432,2.432,0,0,1,.571.356,4.922,4.922,0,0,1,.786.952L177.163,83h-1.191l-.947-1.489q-.415-.645-.684-.986a2.123,2.123,0,0,0-.481-.479,1.425,1.425,0,0,0-.432-.19,2.875,2.875,0,0,0-.527-.034h-1.1V83Zm.947-4h2.036a3.074,3.074,0,0,0,1.016-.134,1.086,1.086,0,0,0,.557-.43,1.164,1.164,0,0,0,.19-.643,1.067,1.067,0,0,0-.368-.835,1.729,1.729,0,0,0-1.165-.327H171.8Z"/><path class="h" d="M177.275,83l2.749-7.158h1.021L183.975,83H182.9l-.835-2.168h-2.993L178.281,83Zm2.065-2.939h2.427l-.747-1.982q-.341-.9-.508-1.484a9.076,9.076,0,0,1-.386,1.367Z"/><path class="h" d="M187.671,83V75.842h.947V83Z"/><path class="h" d="M190.176,83V77.814h.791v.737a1.864,1.864,0,0,1,1.65-.854,2.187,2.187,0,0,1,.862.168,1.36,1.36,0,0,1,.588.442,1.7,1.7,0,0,1,.273.649,5.068,5.068,0,0,1,.049.854V83h-.879V79.846a2.361,2.361,0,0,0-.1-.8.846.846,0,0,0-.364-.426,1.157,1.157,0,0,0-.612-.158,1.429,1.429,0,0,0-.97.356,1.759,1.759,0,0,0-.407,1.353V83Z"/><path class="h" d="M197.656,82.214l.127.776a3.281,3.281,0,0,1-.664.078,1.506,1.506,0,0,1-.742-.151.845.845,0,0,1-.371-.4,3.162,3.162,0,0,1-.107-1.038V78.5h-.645v-.684h.645V76.53l.874-.527v1.812h.884V78.5h-.884V81.53a1.555,1.555,0,0,0,.046.483.368.368,0,0,0,.152.171.585.585,0,0,0,.3.063A2.909,2.909,0,0,0,197.656,82.214Z"/><path class="h" d="M202.065,81.33l.908.112a2.217,2.217,0,0,1-.8,1.235,2.393,2.393,0,0,1-1.484.439,2.367,2.367,0,0,1-1.8-.7,2.733,2.733,0,0,1-.667-1.965,2.865,2.865,0,0,1,.674-2.031,2.283,2.283,0,0,1,1.748-.723,2.218,2.218,0,0,1,1.7.708A2.812,2.812,0,0,1,203,80.4c0,.052,0,.13,0,.234h-3.867a1.99,1.99,0,0,0,.483,1.309,1.44,1.44,0,0,0,1.084.454,1.346,1.346,0,0,0,.825-.254A1.688,1.688,0,0,0,202.065,81.33Zm-2.886-1.421h2.9a1.752,1.752,0,0,0-.332-.981,1.346,1.346,0,0,0-1.089-.508,1.4,1.4,0,0,0-1.019.405A1.608,1.608,0,0,0,199.18,79.909Z"/><path class="h" d="M204.067,83V77.814h.791V78.6a2.134,2.134,0,0,1,.56-.728.972.972,0,0,1,.563-.176,1.717,1.717,0,0,1,.9.283l-.3.815a1.258,1.258,0,0,0-.645-.19.833.833,0,0,0-.518.174.936.936,0,0,0-.327.48,3.423,3.423,0,0,0-.146,1.025V83Z"/><path class="h" d="M207.407,83V77.814h.791v.737a1.864,1.864,0,0,1,1.65-.854,2.187,2.187,0,0,1,.862.168,1.36,1.36,0,0,1,.588.442,1.7,1.7,0,0,1,.273.649,5.068,5.068,0,0,1,.049.854V83h-.879V79.846a2.361,2.361,0,0,0-.1-.8.846.846,0,0,0-.364-.426,1.157,1.157,0,0,0-.612-.158,1.429,1.429,0,0,0-.97.356,1.759,1.759,0,0,0-.407,1.353V83Z"/><path class="h" d="M216.519,81.33l.908.112a2.217,2.217,0,0,1-.8,1.235,2.393,2.393,0,0,1-1.484.439,2.367,2.367,0,0,1-1.8-.7,2.733,2.733,0,0,1-.667-1.965,2.865,2.865,0,0,1,.674-2.031A2.283,2.283,0,0,1,215.1,77.7a2.218,2.218,0,0,1,1.7.708,2.812,2.812,0,0,1,.659,1.992c0,.052,0,.13,0,.234h-3.867a1.99,1.99,0,0,0,.483,1.309,1.44,1.44,0,0,0,1.084.454,1.346,1.346,0,0,0,.825-.254A1.688,1.688,0,0,0,216.519,81.33Zm-2.886-1.421h2.9a1.752,1.752,0,0,0-.332-.981,1.346,1.346,0,0,0-1.089-.508,1.4,1.4,0,0,0-1.019.405A1.608,1.608,0,0,0,213.633,79.909Z"/><path class="h" d="M220.449,82.214l.127.776a3.281,3.281,0,0,1-.664.078,1.506,1.506,0,0,1-.742-.151.845.845,0,0,1-.371-.4,3.162,3.162,0,0,1-.107-1.038V78.5h-.645v-.684h.645V76.53l.874-.527v1.812h.884V78.5h-.884V81.53a1.555,1.555,0,0,0,.046.483.368.368,0,0,0,.152.171.585.585,0,0,0,.3.063A2.909,2.909,0,0,0,220.449,82.214Z"/><path class="h" d="M224.36,83V75.842h.947V83Z"/><path class="h" d="M226.865,83V77.814h.791v.737a1.864,1.864,0,0,1,1.65-.854,2.187,2.187,0,0,1,.862.168,1.36,1.36,0,0,1,.588.442,1.7,1.7,0,0,1,.273.649,5.068,5.068,0,0,1,.049.854V83H230.2V79.846a2.361,2.361,0,0,0-.1-.8.846.846,0,0,0-.364-.426,1.157,1.157,0,0,0-.612-.158,1.429,1.429,0,0,0-.97.356,1.759,1.759,0,0,0-.407,1.353V83Z"/><path class="h" d="M235.811,81.1l.864.112a2.237,2.237,0,0,1-.726,1.4,2.106,2.106,0,0,1-1.433.506,2.231,2.231,0,0,1-1.712-.7,2.828,2.828,0,0,1-.646-2,3.611,3.611,0,0,1,.278-1.47,1.947,1.947,0,0,1,.847-.945,2.526,2.526,0,0,1,1.238-.314,2.15,2.15,0,0,1,1.382.428,1.952,1.952,0,0,1,.688,1.213l-.854.132a1.414,1.414,0,0,0-.433-.786,1.116,1.116,0,0,0-.749-.264,1.362,1.362,0,0,0-1.079.477,2.259,2.259,0,0,0-.415,1.506,2.338,2.338,0,0,0,.4,1.519,1.3,1.3,0,0,0,1.045.474,1.231,1.231,0,0,0,.864-.317A1.572,1.572,0,0,0,235.811,81.1Z"/><path class="h" d="M237.676,83V82h1v1Z"/></svg>