<svg xmlns="http://www.w3.org/2000/svg" xmlns:xlink="http://www.w3.org/1999/xlink" viewBox="0 0 1024 120"><defs><style>.a{fill:none;}.b{fill:#fff;}.c{fill:#e76c81;}.d{clip-path:url(#a);}.e{fill:#e95471;}.f{fill:#d2d4d5;}.g{fill:#838689;}.h{fill:#53585f;}</style><clipPath id="a"><rect class="a" x="343" y="1.435" width="338" height="92"/></clipPath></defs><title>main-footer</title><rect class="b" width="1024" height="120"/><rect class="c" width="1024" height="3.184"/><g class="d"><path class="e" d="M408.277,21.405a13.934,13.934,0,0,0-19.608,2.218l-6.551,8.145a3.335,3.335,0,0,0,2.573,5.43h19.168a5.636,5.636,0,0,1,5.5,4.488l.115.546.892-1.11a14.062,14.062,0,0,0-2.093-19.717"/><path class="f" d="M379.144,62.045a13.665,13.665,0,0,1-8.636-3.056,14.061,14.061,0,0,1-2.093-19.716l.893-1.11.115.547a5.637,5.637,0,0,0,5.5,4.487H394.1a3.334,3.334,0,0,1,2.572,5.429l-6.551,8.145a14.075,14.075,0,0,1-10.973,5.274"/><path class="g" d="M466.869,48.846v14.36c0,4.506,3.305,7.829,9.146,7.829,5.5,0,9.09-3.024,9.09-7.954V48.846h-3.193V62.166c0,4.677-1.986,6.186-5.592,6.186-3.782,0-5.267-1.932-5.267-6.279V48.845h-4.184"/><rect class="g" x="543.167" y="54.464" width="3.968" height="16.229"/><path class="g" d="M545.151,52.591a2.372,2.372,0,1,0-2.356-2.372,2.364,2.364,0,0,0,2.356,2.372"/><path class="g" d="M589.315,54.121c-4.853,0-7.7,3.464-7.7,8.426V62.7c0,5.149,3.226,8.333,8.238,8.333a11.263,11.263,0,0,0,5.927-1.6V66.663a9.434,9.434,0,0,1-5.873,2.063c-2.314,0-4.015-1.609-4.015-5.27h10.848c0-5.809-2.188-9.336-7.422-9.336m-3.379,7.026c.126-2.843,1.012-4.716,3.379-4.716,2.254,0,3.074,2.072,3.145,4.716Z"/><path class="g" d="M638.087,54.121c-4.852,0-7.7,3.464-7.7,8.426V62.7c0,5.149,3.226,8.333,8.237,8.333a11.265,11.265,0,0,0,5.927-1.6V66.663a9.429,9.429,0,0,1-5.873,2.063c-2.313,0-4.013-1.609-4.013-5.27H645.51c0-5.809-2.189-9.336-7.423-9.336m-3.377,7.026c.127-2.843,1.011-4.716,3.377-4.716,2.256,0,3.076,2.072,3.146,4.716Z"/><path class="g" d="M574.575,66.3V56.773h4.675V54.464h-4.675V49.658h-3.967v4.806h-2.165v2.309h2.165v9.776c0,2.63,2.143,4.486,5.318,4.486a5.824,5.824,0,0,0,3.361-.854V68.159a6.728,6.728,0,0,1-2.474.442,2.138,2.138,0,0,1-2.237-2.3"/><path class="g" d="M408.13,54.049c0-1.785,1.22-2.831,3.59-2.831a10.6,10.6,0,0,1,6.4,2.116V49.816a16.517,16.517,0,0,0-6.408-1.282c-4.723,0-8.079,2.343-8.079,5.866,0,7.221,11.011,6.054,11.011,10.907,0,1.928-1.4,3.013-3.426,3.013a12.1,12.1,0,0,1-7.54-3.091v3.624A13.23,13.23,0,0,0,411.509,71c4.638,0,7.631-2.445,7.631-6.1,0-7.718-11.01-6.2-11.01-10.855"/><path class="g" d="M507.875,55.273c0-4.757-3.964-6.428-7.789-6.428h-9.669V70.692H494.6V61.985h3.992l4.937,8.707h4.819l-5.217-9.212a6.17,6.17,0,0,0,4.742-6.206M494.6,51.548h4.1c2.8,0,4.68,1.279,4.68,3.923,0,2.821-2.235,3.813-4.679,3.813h-4.1Z"/><polyline class="g" points="458.474 70.692 463.706 70.692 454.647 58.536 463.188 48.846 459.624 48.846 448.998 60.902 448.998 48.846 444.814 48.846 444.814 70.692 448.998 70.692 448.998 64.946 451.813 61.752 458.474 70.692"/><path class="g" d="M437.351,70.692h4.488l-8.477-22H429.11l-8.476,22h3.424l2.228-5.784h8.836l2.228,5.784M427.32,62.224,430.7,53.44l3.384,8.784Z"/><path class="g" d="M560.759,54.121a7.211,7.211,0,0,0-5.269,2.745v-2.4h-3.968V70.691h3.968V59.325a4.326,4.326,0,0,1,3.62-2.482,2.348,2.348,0,0,1,2.377,2.366V70.691h3.967V58.322c0-1.983-1.371-4.2-4.7-4.2"/><path class="g" d="M622.305,54.121a7.213,7.213,0,0,0-5.269,2.745v-2.4h-3.968V70.691h3.968V59.325a4.329,4.329,0,0,1,3.62-2.482,2.348,2.348,0,0,1,2.377,2.366V70.691H627V58.322c0-1.983-1.372-4.2-4.7-4.2"/><path class="g" d="M604.284,57.33V54.464h-3.968V70.692h3.968V59.8a7.48,7.48,0,0,1,5.988-2.466V54.308a7.364,7.364,0,0,0-5.988,3.022"/><path class="g" d="M527.237,70.692h4.488l-8.477-22H519l-8.476,22h3.424l2.229-5.784h8.836l2.228,5.784m-10.031-8.468,3.384-8.784,3.384,8.784Z"/><path class="g" d="M653.89,66.3V56.773h4.674V54.464H653.89V49.658h-3.968v4.806h-2.164v2.309h2.164v9.776c0,2.63,2.143,4.486,5.318,4.486a5.819,5.819,0,0,0,3.361-.854V68.159a6.721,6.721,0,0,1-2.474.442,2.139,2.139,0,0,1-2.237-2.3"/></g><path class="h" d="M409.842,97.662a8.771,8.771,0,0,1-1.23-2.148,6.743,6.743,0,0,1-.127-4.775,9.36,9.36,0,0,1,1.357-2.461h.63q-.59,1.015-.781,1.45a7.976,7.976,0,0,0-.469,1.406,8.184,8.184,0,0,0-.21,1.836,8.809,8.809,0,0,0,1.46,4.692Z"/><path class="h" d="M416.712,93.048l.947.239a3.186,3.186,0,0,1-1.072,1.78,2.953,2.953,0,0,1-1.892.612,3.393,3.393,0,0,1-1.882-.472,2.93,2.93,0,0,1-1.1-1.364,4.858,4.858,0,0,1-.379-1.919,4.219,4.219,0,0,1,.428-1.951,2.917,2.917,0,0,1,1.215-1.264,3.545,3.545,0,0,1,1.736-.433,2.937,2.937,0,0,1,1.807.547,2.839,2.839,0,0,1,1.021,1.538l-.933.22a2.214,2.214,0,0,0-.723-1.138,1.927,1.927,0,0,0-1.191-.356,2.313,2.313,0,0,0-1.379.4,2.081,2.081,0,0,0-.779,1.063,4.279,4.279,0,0,0-.225,1.374,4.39,4.39,0,0,0,.266,1.595,1.989,1.989,0,0,0,.828,1.018,2.319,2.319,0,0,0,1.216.337,2.04,2.04,0,0,0,1.348-.459A2.343,2.343,0,0,0,416.712,93.048Z"/><path class="h" d="M419.29,97.662h-.63a8.809,8.809,0,0,0,1.46-4.692,8.038,8.038,0,0,0-.21-1.821,7.655,7.655,0,0,0-.464-1.406,16.408,16.408,0,0,0-.786-1.465h.63a9.36,9.36,0,0,1,1.357,2.461,6.723,6.723,0,0,1-.13,4.775A8.925,8.925,0,0,1,419.29,97.662Z"/><path class="h" d="M430.042,93.048l.947.239a3.186,3.186,0,0,1-1.072,1.78,2.953,2.953,0,0,1-1.892.612,3.393,3.393,0,0,1-1.882-.472,2.93,2.93,0,0,1-1.1-1.364,4.858,4.858,0,0,1-.379-1.919,4.219,4.219,0,0,1,.428-1.951A2.917,2.917,0,0,1,426.3,88.71a3.545,3.545,0,0,1,1.736-.433,2.937,2.937,0,0,1,1.807.547,2.839,2.839,0,0,1,1.021,1.538l-.933.22a2.214,2.214,0,0,0-.723-1.138,1.927,1.927,0,0,0-1.191-.356,2.313,2.313,0,0,0-1.379.4,2.081,2.081,0,0,0-.779,1.063,4.279,4.279,0,0,0-.225,1.374,4.39,4.39,0,0,0,.266,1.595,1.989,1.989,0,0,0,.828,1.018,2.319,2.319,0,0,0,1.216.337,2.04,2.04,0,0,0,1.348-.459A2.343,2.343,0,0,0,430.042,93.048Z"/><path class="h" d="M431.717,92.965a2.672,2.672,0,0,1,.8-2.134,2.415,2.415,0,0,1,1.631-.576,2.324,2.324,0,0,1,1.748.7,2.666,2.666,0,0,1,.679,1.936,3.441,3.441,0,0,1-.3,1.574,2.133,2.133,0,0,1-.875.892,2.538,2.538,0,0,1-1.252.317,2.329,2.329,0,0,1-1.76-.7A2.786,2.786,0,0,1,431.717,92.965Zm.9,0a2.205,2.205,0,0,0,.435,1.491,1.447,1.447,0,0,0,2.183,0,2.259,2.259,0,0,0,.435-1.519,2.141,2.141,0,0,0-.437-1.458,1.449,1.449,0,0,0-2.18,0A2.2,2.2,0,0,0,432.62,92.965Z"/><path class="h" d="M437.605,97.545V90.372h.8v.674a1.986,1.986,0,0,1,.64-.594,1.767,1.767,0,0,1,.864-.2,2.053,2.053,0,0,1,1.172.342,2.092,2.092,0,0,1,.767.965,3.508,3.508,0,0,1,.259,1.364,3.446,3.446,0,0,1-.286,1.433,2.173,2.173,0,0,1-1.975,1.316,1.654,1.654,0,0,1-.789-.186,1.8,1.8,0,0,1-.573-.469v2.524Zm.8-4.551a2.255,2.255,0,0,0,.405,1.479,1.243,1.243,0,0,0,.981.479,1.271,1.271,0,0,0,1-.5,2.355,2.355,0,0,0,.417-1.535,2.293,2.293,0,0,0-.407-1.484,1.228,1.228,0,0,0-.975-.493,1.269,1.269,0,0,0-.994.524A2.357,2.357,0,0,0,438.4,92.994Z"/><path class="h" d="M443.128,97.555l-.1-.825a1.973,1.973,0,0,0,.5.078.961.961,0,0,0,.469-.1.8.8,0,0,0,.288-.273,4.3,4.3,0,0,0,.269-.654c.017-.049.042-.12.078-.215l-1.968-5.2h.947l1.079,3q.209.571.376,1.2a11.826,11.826,0,0,1,.361-1.182l1.108-3.022h.879l-1.973,5.273a10.44,10.44,0,0,1-.493,1.177,1.737,1.737,0,0,1-.537.638,1.271,1.271,0,0,1-.723.2A1.769,1.769,0,0,1,443.128,97.555Z"/><path class="h" d="M448.157,95.558V90.372h.791v.786a2.134,2.134,0,0,1,.56-.728.972.972,0,0,1,.563-.176,1.717,1.717,0,0,1,.9.283l-.3.815a1.258,1.258,0,0,0-.645-.19.833.833,0,0,0-.518.174.936.936,0,0,0-.327.48,3.423,3.423,0,0,0-.146,1.025v2.715Z"/><path class="h" d="M451.5,89.41V88.4h.879V89.41Zm0,6.147V90.372h.879v5.186Z"/><path class="h" d="M453.558,95.987l.854.127a.814.814,0,0,0,.3.576,1.46,1.46,0,0,0,.894.244,1.567,1.567,0,0,0,.942-.244,1.2,1.2,0,0,0,.449-.684,5.609,5.609,0,0,0,.063-1.128,1.808,1.808,0,0,1-1.436.679,1.956,1.956,0,0,1-1.655-.771,2.971,2.971,0,0,1-.586-1.851,3.453,3.453,0,0,1,.269-1.37,2.146,2.146,0,0,1,.778-.969,2.108,2.108,0,0,1,1.2-.342,1.858,1.858,0,0,1,1.514.742v-.625h.811v4.482a4.264,4.264,0,0,1-.246,1.717,1.816,1.816,0,0,1-.781.8,2.713,2.713,0,0,1-1.316.293,2.489,2.489,0,0,1-1.5-.417A1.415,1.415,0,0,1,453.558,95.987Zm.728-3.115a2.247,2.247,0,0,0,.405,1.489,1.287,1.287,0,0,0,1.016.469,1.3,1.3,0,0,0,1.016-.466,2.179,2.179,0,0,0,.41-1.463,2.128,2.128,0,0,0-.422-1.436,1.307,1.307,0,0,0-1.019-.483,1.271,1.271,0,0,0-1,.476A2.117,2.117,0,0,0,454.285,92.872Z"/><path class="h" d="M459.28,95.558V88.4h.879v2.568a1.962,1.962,0,0,1,1.553-.713,2.106,2.106,0,0,1,1,.227,1.334,1.334,0,0,1,.607.628,2.873,2.873,0,0,1,.184,1.162v3.286h-.879V92.271a1.365,1.365,0,0,0-.285-.96,1.068,1.068,0,0,0-.809-.3,1.422,1.422,0,0,0-.734.2,1.143,1.143,0,0,0-.491.55,2.523,2.523,0,0,0-.146.957v2.837Z"/><path class="h" d="M466.761,94.771l.127.776a3.281,3.281,0,0,1-.664.078,1.506,1.506,0,0,1-.742-.151.845.845,0,0,1-.371-.4A3.162,3.162,0,0,1,465,94.039V91.056h-.645v-.684H465V89.088l.874-.527v1.812h.884v.684h-.884v3.032a1.555,1.555,0,0,0,.046.483.368.368,0,0,0,.152.171.585.585,0,0,0,.3.063A2.909,2.909,0,0,0,466.761,94.771Z"/><path class="h" d="M473.465,95.558h-.879v-5.6a4.548,4.548,0,0,1-.833.605,5.814,5.814,0,0,1-.925.454v-.85a5.321,5.321,0,0,0,1.289-.84,3.3,3.3,0,0,0,.781-.957h.566Z"/><path class="h" d="M475.848,93.9l.845-.078a1.462,1.462,0,0,0,.41.864,1.129,1.129,0,0,0,.776.269,1.34,1.34,0,0,0,.711-.186,1.523,1.523,0,0,0,.5-.5,2.93,2.93,0,0,0,.327-.838,4.414,4.414,0,0,0,.132-1.074c0-.039,0-.1,0-.176a2.021,2.021,0,0,1-.72.682,1.964,1.964,0,0,1-.989.261,2,2,0,0,1-1.5-.645,2.359,2.359,0,0,1-.615-1.7,2.416,2.416,0,0,1,.642-1.753,2.148,2.148,0,0,1,1.609-.664,2.3,2.3,0,0,1,1.277.376,2.366,2.366,0,0,1,.879,1.071,5.305,5.305,0,0,1,.3,2.015,6.519,6.519,0,0,1-.3,2.185,2.553,2.553,0,0,1-.887,1.238,2.291,2.291,0,0,1-1.379.425,1.89,1.89,0,0,1-2.012-1.777Zm3.6-3.159a1.715,1.715,0,0,0-.4-1.2,1.261,1.261,0,0,0-.969-.444,1.337,1.337,0,0,0-1.021.479,1.773,1.773,0,0,0-.435,1.24,1.532,1.532,0,0,0,.412,1.11,1.361,1.361,0,0,0,1.019.428,1.3,1.3,0,0,0,1-.428A1.677,1.677,0,0,0,479.446,90.743Z"/><path class="h" d="M481.409,93.9l.845-.078a1.462,1.462,0,0,0,.41.864,1.129,1.129,0,0,0,.776.269,1.34,1.34,0,0,0,.711-.186,1.523,1.523,0,0,0,.5-.5,2.93,2.93,0,0,0,.327-.838,4.414,4.414,0,0,0,.132-1.074c0-.039,0-.1,0-.176a2.021,2.021,0,0,1-.72.682,1.964,1.964,0,0,1-.989.261,2,2,0,0,1-1.5-.645,2.359,2.359,0,0,1-.615-1.7,2.416,2.416,0,0,1,.642-1.753,2.148,2.148,0,0,1,1.609-.664,2.3,2.3,0,0,1,1.277.376,2.366,2.366,0,0,1,.879,1.071,5.305,5.305,0,0,1,.3,2.015,6.519,6.519,0,0,1-.3,2.185,2.553,2.553,0,0,1-.887,1.238,2.291,2.291,0,0,1-1.379.425,1.89,1.89,0,0,1-2.012-1.777Zm3.6-3.159a1.715,1.715,0,0,0-.4-1.2,1.261,1.261,0,0,0-.969-.444,1.337,1.337,0,0,0-1.021.479,1.773,1.773,0,0,0-.435,1.24,1.532,1.532,0,0,0,.412,1.11,1.361,1.361,0,0,0,1.019.428,1.3,1.3,0,0,0,1-.428A1.677,1.677,0,0,0,485.008,90.743Z"/><path class="h" d="M491.4,90.152l-.874.068a1.653,1.653,0,0,0-.332-.752,1.161,1.161,0,0,0-.879-.376,1.208,1.208,0,0,0-.737.234,2,2,0,0,0-.654.884,4.636,4.636,0,0,0-.249,1.655,2.041,2.041,0,0,1,.776-.718,2.088,2.088,0,0,1,.962-.234,1.99,1.99,0,0,1,1.5.647,2.319,2.319,0,0,1,.618,1.672,2.751,2.751,0,0,1-.29,1.252,2.116,2.116,0,0,1-.8.887,2.181,2.181,0,0,1-1.152.308,2.253,2.253,0,0,1-1.792-.808,4.083,4.083,0,0,1-.693-2.664,4.776,4.776,0,0,1,.767-3.018,2.2,2.2,0,0,1,1.8-.82,1.918,1.918,0,0,1,2.031,1.782Zm-3.589,3.086a2.033,2.033,0,0,0,.193.869,1.429,1.429,0,0,0,.539.632,1.345,1.345,0,0,0,.728.218,1.238,1.238,0,0,0,.957-.449,1.77,1.77,0,0,0,.4-1.221,1.652,1.652,0,0,0-.4-1.169,1.3,1.3,0,0,0-1-.428,1.354,1.354,0,0,0-1.011.428A1.54,1.54,0,0,0,487.811,93.238Z"/><path class="h" d="M492.3,93.409v-.884H495v.884Z"/><path class="h" d="M500.35,94.713v.845h-4.731a1.542,1.542,0,0,1,.1-.61A3.217,3.217,0,0,1,496.3,94a9.034,9.034,0,0,1,1.149-1.084,9.75,9.75,0,0,0,1.577-1.516,1.817,1.817,0,0,0,.41-1.058,1.18,1.18,0,0,0-.373-.882,1.354,1.354,0,0,0-.975-.358,1.373,1.373,0,0,0-1.016.381,1.44,1.44,0,0,0-.386,1.055l-.9-.093a2.225,2.225,0,0,1,.7-1.541,2.384,2.384,0,0,1,1.626-.529,2.269,2.269,0,0,1,1.631.571,1.875,1.875,0,0,1,.6,1.416,2.148,2.148,0,0,1-.176.845,3.283,3.283,0,0,1-.583.874,14.362,14.362,0,0,1-1.355,1.26q-.791.664-1.016.9a2.891,2.891,0,0,0-.371.476Z"/><path class="h" d="M501.292,92.027a6.567,6.567,0,0,1,.261-2.044,2.547,2.547,0,0,1,.777-1.193,1.981,1.981,0,0,1,1.3-.42,2.109,2.109,0,0,1,1.011.232,1.925,1.925,0,0,1,.718.668,3.608,3.608,0,0,1,.444,1.064,7.079,7.079,0,0,1,.161,1.692,6.565,6.565,0,0,1-.259,2.034,2.546,2.546,0,0,1-.773,1.2,1.983,1.983,0,0,1-1.3.423A1.963,1.963,0,0,1,502,94.938,4.719,4.719,0,0,1,501.292,92.027Zm.9,0a4.5,4.5,0,0,0,.412,2.347,1.18,1.18,0,0,0,2.037,0,6.885,6.885,0,0,0,0-4.692,1.225,1.225,0,0,0-1.028-.581,1.127,1.127,0,0,0-.967.513A4.541,4.541,0,0,0,502.2,92.027Z"/><path class="h" d="M510.164,95.558h-.879v-5.6a4.548,4.548,0,0,1-.833.605,5.814,5.814,0,0,1-.925.454v-.85a5.321,5.321,0,0,0,1.289-.84,3.3,3.3,0,0,0,.781-.957h.566Z"/><path class="h" d="M512.474,89.337v-.845h4.634v.684a9.8,9.8,0,0,0-1.355,1.934,11.784,11.784,0,0,0-1.037,2.48,9.216,9.216,0,0,0-.337,1.968h-.9a8.755,8.755,0,0,1,.332-2.041,10.766,10.766,0,0,1,.91-2.307,9.9,9.9,0,0,1,1.263-1.873Z"/><path class="h" d="M520.789,93.258l.894-.078a1.966,1.966,0,0,0,.3.882,1.625,1.625,0,0,0,.72.557,2.742,2.742,0,0,0,1.1.212,2.631,2.631,0,0,0,.957-.161,1.33,1.33,0,0,0,.617-.441,1.023,1.023,0,0,0,.2-.613.931.931,0,0,0-.2-.588,1.443,1.443,0,0,0-.645-.423,12.425,12.425,0,0,0-1.274-.349,6.551,6.551,0,0,1-1.382-.447,1.933,1.933,0,0,1-.764-.666,1.633,1.633,0,0,1-.252-.892,1.816,1.816,0,0,1,.308-1.013,1.907,1.907,0,0,1,.9-.716,3.4,3.4,0,0,1,1.313-.244,3.578,3.578,0,0,1,1.4.257,2.02,2.02,0,0,1,.935.754,2.173,2.173,0,0,1,.352,1.128l-.908.068a1.468,1.468,0,0,0-.5-1.025,1.931,1.931,0,0,0-1.248-.347,2.006,2.006,0,0,0-1.252.314.946.946,0,0,0-.394.76.814.814,0,0,0,.278.635,3.769,3.769,0,0,0,1.428.51,9.511,9.511,0,0,1,1.585.457,2.167,2.167,0,0,1,.923.73,1.779,1.779,0,0,1,.3,1.018,1.946,1.946,0,0,1-.327,1.076,2.15,2.15,0,0,1-.939.787,3.29,3.29,0,0,1-1.38.28,4.122,4.122,0,0,1-1.628-.283,2.28,2.28,0,0,1-1.031-.853A2.419,2.419,0,0,1,520.789,93.258Z"/><path class="h" d="M527,95.558l2.749-7.158h1.021l2.93,7.158h-1.079l-.835-2.168h-2.993L528,95.558Zm2.065-2.939h2.427l-.747-1.982q-.341-.9-.508-1.484a9.076,9.076,0,0,1-.386,1.367Z"/><path class="h" d="M534.412,95.558V88.4h.947v3.55l3.555-3.55H540.2l-3,2.9,3.135,4.258h-1.25l-2.549-3.623-1.172,1.143v2.48Z"/><path class="h" d="M545.818,88.4h.947v4.136a4.885,4.885,0,0,1-.244,1.714,2.1,2.1,0,0,1-.881,1.033,3.131,3.131,0,0,1-1.673.4,3.433,3.433,0,0,1-1.646-.347,1.979,1.979,0,0,1-.913-1,4.77,4.77,0,0,1-.273-1.794V88.4h.947V92.53a4.041,4.041,0,0,0,.173,1.375,1.321,1.321,0,0,0,.6.681,2.073,2.073,0,0,0,1.033.239,1.975,1.975,0,0,0,1.489-.474,2.73,2.73,0,0,0,.444-1.821Z"/><path class="h" d="M548.357,95.558V88.4h3.174a4.215,4.215,0,0,1,1.455.193,1.587,1.587,0,0,1,.8.681,2.035,2.035,0,0,1,.3,1.079,1.8,1.8,0,0,1-.493,1.284,2.5,2.5,0,0,1-1.523.664,2.432,2.432,0,0,1,.571.356,4.922,4.922,0,0,1,.786.952l1.245,1.948h-1.191l-.947-1.489q-.415-.645-.684-.986a2.123,2.123,0,0,0-.481-.479,1.425,1.425,0,0,0-.432-.19,2.875,2.875,0,0,0-.527-.034h-1.1v3.179Zm.947-4h2.036a3.074,3.074,0,0,0,1.016-.134,1.086,1.086,0,0,0,.557-.43,1.164,1.164,0,0,0,.19-.643,1.067,1.067,0,0,0-.368-.835,1.729,1.729,0,0,0-1.165-.327H549.3Z"/><path class="h" d="M554.778,95.558l2.749-7.158h1.021l2.93,7.158H560.4l-.835-2.168H556.57l-.786,2.168Zm2.065-2.939h2.427l-.747-1.982q-.341-.9-.508-1.484a9.076,9.076,0,0,1-.386,1.367Z"/><path class="h" d="M564.622,95.558V88.4h.947v7.158Z"/><path class="h" d="M567.127,95.558V90.372h.791v.737a1.864,1.864,0,0,1,1.65-.854,2.187,2.187,0,0,1,.862.168,1.36,1.36,0,0,1,.588.442,1.7,1.7,0,0,1,.273.649,5.068,5.068,0,0,1,.049.854v3.188h-.879V92.4a2.361,2.361,0,0,0-.1-.8.846.846,0,0,0-.364-.426,1.157,1.157,0,0,0-.612-.158,1.429,1.429,0,0,0-.97.356,1.759,1.759,0,0,0-.407,1.353v2.832Z"/><path class="h" d="M574.607,94.771l.127.776a3.281,3.281,0,0,1-.664.078,1.506,1.506,0,0,1-.742-.151.845.845,0,0,1-.371-.4,3.162,3.162,0,0,1-.107-1.038V91.056h-.645v-.684h.645V89.088l.874-.527v1.812h.884v.684h-.884v3.032a1.555,1.555,0,0,0,.046.483.368.368,0,0,0,.152.171.585.585,0,0,0,.3.063A2.909,2.909,0,0,0,574.607,94.771Z"/><path class="h" d="M579.017,93.888l.908.112a2.217,2.217,0,0,1-.8,1.235,2.393,2.393,0,0,1-1.484.439,2.367,2.367,0,0,1-1.8-.7,2.733,2.733,0,0,1-.667-1.965,2.865,2.865,0,0,1,.674-2.031,2.283,2.283,0,0,1,1.748-.723,2.218,2.218,0,0,1,1.7.708,2.812,2.812,0,0,1,.659,1.992c0,.052,0,.13,0,.234h-3.867a1.99,1.99,0,0,0,.483,1.309,1.44,1.44,0,0,0,1.084.454,1.346,1.346,0,0,0,.825-.254A1.688,1.688,0,0,0,579.017,93.888Zm-2.886-1.421h2.9a1.752,1.752,0,0,0-.332-.981,1.346,1.346,0,0,0-1.089-.508,1.4,1.4,0,0,0-1.019.405A1.608,1.608,0,0,0,576.131,92.467Z"/><path class="h" d="M581.019,95.558V90.372h.791v.786a2.134,2.134,0,0,1,.56-.728.972.972,0,0,1,.563-.176,1.717,1.717,0,0,1,.9.283l-.3.815a1.258,1.258,0,0,0-.645-.19.833.833,0,0,0-.518.174.936.936,0,0,0-.327.48,3.423,3.423,0,0,0-.146,1.025v2.715Z"/><path class="h" d="M584.358,95.558V90.372h.791v.737a1.864,1.864,0,0,1,1.65-.854,2.187,2.187,0,0,1,.862.168,1.36,1.36,0,0,1,.588.442,1.7,1.7,0,0,1,.273.649,5.068,5.068,0,0,1,.049.854v3.188h-.879V92.4a2.361,2.361,0,0,0-.1-.8.846.846,0,0,0-.364-.426,1.157,1.157,0,0,0-.612-.158,1.429,1.429,0,0,0-.97.356,1.759,1.759,0,0,0-.407,1.353v2.832Z"/><path class="h" d="M593.47,93.888l.908.112a2.217,2.217,0,0,1-.8,1.235,2.393,2.393,0,0,1-1.484.439,2.367,2.367,0,0,1-1.8-.7,2.733,2.733,0,0,1-.667-1.965,2.865,2.865,0,0,1,.674-2.031,2.283,2.283,0,0,1,1.748-.723,2.218,2.218,0,0,1,1.7.708,2.812,2.812,0,0,1,.659,1.992c0,.052,0,.13,0,.234h-3.867a1.99,1.99,0,0,0,.483,1.309,1.44,1.44,0,0,0,1.084.454,1.346,1.346,0,0,0,.825-.254A1.688,1.688,0,0,0,593.47,93.888Zm-2.886-1.421h2.9a1.752,1.752,0,0,0-.332-.981,1.346,1.346,0,0,0-1.089-.508,1.4,1.4,0,0,0-1.019.405A1.608,1.608,0,0,0,590.584,92.467Z"/><path class="h" d="M597.4,94.771l.127.776a3.281,3.281,0,0,1-.664.078,1.506,1.506,0,0,1-.742-.151.845.845,0,0,1-.371-.4,3.162,3.162,0,0,1-.107-1.038V91.056H595v-.684h.645V89.088l.874-.527v1.812h.884v.684h-.884v3.032a1.555,1.555,0,0,0,.046.483.368.368,0,0,0,.152.171.585.585,0,0,0,.3.063A2.909,2.909,0,0,0,597.4,94.771Z"/><path class="h" d="M601.312,95.558V88.4h.947v7.158Z"/><path class="h" d="M603.816,95.558V90.372h.791v.737a1.864,1.864,0,0,1,1.65-.854,2.187,2.187,0,0,1,.862.168,1.36,1.36,0,0,1,.588.442,1.7,1.7,0,0,1,.273.649,5.068,5.068,0,0,1,.049.854v3.188h-.879V92.4a2.361,2.361,0,0,0-.1-.8.846.846,0,0,0-.364-.426,1.157,1.157,0,0,0-.612-.158,1.429,1.429,0,0,0-.97.356,1.759,1.759,0,0,0-.407,1.353v2.832Z"/><path class="h" d="M612.762,93.658l.864.112a2.237,2.237,0,0,1-.726,1.4,2.106,2.106,0,0,1-1.433.506,2.231,2.231,0,0,1-1.712-.7,2.828,2.828,0,0,1-.646-2,3.611,3.611,0,0,1,.278-1.47,1.947,1.947,0,0,1,.847-.945,2.526,2.526,0,0,1,1.238-.314,2.15,2.15,0,0,1,1.382.428,1.952,1.952,0,0,1,.688,1.213l-.854.132a1.414,1.414,0,0,0-.433-.786,1.116,1.116,0,0,0-.749-.264,1.362,1.362,0,0,0-1.079.477,2.259,2.259,0,0,0-.415,1.506,2.338,2.338,0,0,0,.4,1.519,1.3,1.3,0,0,0,1.045.474,1.231,1.231,0,0,0,.864-.317A1.572,1.572,0,0,0,612.762,93.658Z"/><path class="h" d="M614.627,95.558v-1h1v1Z"/></svg>